<svg width="244" height="244" viewBox="0 0 244 244" fill="none" xmlns="http://www.w3.org/2000/svg">
<rect width="244" height="244" fill="black"/>
<path d="M184.38 70.0048V40H68.2328V73.7383V79.8956L74.4148 86.0725L59.625 100.831L74.3952 115.589L59.625 130.366L74.3952 145.124L59.625 159.902L68.2328 168.503V173.213V204H103.173V135.644H182.658V105.659H103.173V70.0048H184.38ZM103.173 111.523H176.789V129.799H103.173H97.3037V135.663V198.136H74.1018V173.213V166.059L67.9198 159.882L82.69 145.124L67.9198 130.366L82.69 115.608L67.9198 100.85L82.69 86.092L74.0822 77.4913V73.7578V45.8641H178.491V64.1406H103.173H97.3037V70.0048V105.659V111.523H103.173Z" fill="#1DFDC0"/>
</svg>
