<svg width="164" height="164" viewBox="0 0 164 164" fill="none" xmlns="http://www.w3.org/2000/svg">
<path d="M144.38 30.0048V0H28.2328V33.7383V39.8956L34.4148 46.0725L19.625 60.8305L34.3952 75.5886L19.625 90.3661L34.3952 105.124L19.625 119.902L28.2328 128.503V133.213V164H63.1727V95.6439H142.658V65.6586H63.1727V30.0048H144.38ZM63.1727 71.5228H136.789V89.7993H63.1727H57.3037V95.6634V158.136H34.1018V133.213V126.059L27.9198 119.882L42.69 105.124L27.9198 90.3661L42.69 75.6081L27.9198 60.8501L42.69 46.092L34.0822 37.4913V33.7578V5.86412H138.491V24.1406H63.1727H57.3037V30.0048V65.6586V71.5228H63.1727Z" fill="#1DFDC0"/>
</svg>
