<svg width="336" height="124" viewBox="0 0 336 124" fill="none" xmlns="http://www.w3.org/2000/svg">
<path d="M325.48 38.4669L300.077 75.2657L298.329 77.7979L300.092 80.3302L327.466 119.543H311.875L292.697 91.1403L289.021 85.7056L285.331 91.1255L265.975 119.543H250.503L277.58 80.3154L279.314 77.7979L277.58 75.2805L252.326 38.4521H267.991L285.316 64.2483L289.021 69.7718L292.712 64.2335L309.844 38.4669H325.48ZM333.942 34.0244H307.473L289.021 61.7753L270.377 34.0244H243.907L273.919 77.7979L242.04 124H268.332L289.021 93.6429L309.533 124H336.002L303.753 77.7979L333.942 34.0244Z" fill="#1DFDC0"/>
<path d="M228.519 38.3592V79.5685C228.519 106.921 216.555 119.665 190.87 119.665C165.184 119.665 153.221 106.921 153.221 79.5685V38.3592H167.961V79.5685C167.961 104.797 182.318 108.568 190.884 108.568C199.451 108.568 213.808 104.797 213.808 79.5685V38.3592H228.519ZM232.95 34.0244H209.347V79.5685C209.347 92.8618 204.99 104.233 190.855 104.233C176.735 104.233 172.363 92.8618 172.363 79.5685V34.0244H148.76V79.5685C148.76 109.19 162.408 124 190.84 124C219.273 124 232.92 109.19 232.92 79.5685V34.0244H232.95Z" fill="#1DFDC0"/>
<path d="M128.206 4.43385V119.566H113.444V4.43385H128.206ZM132.644 0H109.007V124H132.644V0Z" fill="#1DFDC0"/>
<path d="M94.3266 22.6865V0H6.50834V25.5094V30.165L11.1825 34.8353L0 45.9938L11.1677 57.1523L0 68.3256L11.1677 79.4841L0 90.6574L6.50834 97.1604V100.722V124H32.9263V72.3161H93.0249V49.6443H32.9263V22.6865H94.3266ZM32.9263 54.0782H88.5874V67.897H32.9263H28.4888V72.3309V119.566H10.9458V100.722V95.313L6.27167 90.6427L17.4394 79.4841L6.27167 68.3256L17.4394 57.1671L6.27167 46.0086L17.4394 34.8501L10.9311 28.3471V25.5242V4.43385H89.8743V18.2527H32.9263H28.4888V22.6865V49.6443V54.0782H32.9263Z" fill="#1DFDC0"/>
</svg>
